<?xml version="1.0" standalone="no"?>
<!DOCTYPE svg PUBLIC "-//W3C//DTD SVG 20010904//EN"
 "http://www.w3.org/TR/2001/REC-SVG-20010904/DTD/svg10.dtd">
<svg version="1.0" xmlns="http://www.w3.org/2000/svg"
 width="4000.000000pt" height="4000.000000pt" viewBox="0 0 4000.000000 4000.000000"
 preserveAspectRatio="xMidYMid meet">
<metadata>
Created by potrace 1.14, written by Peter Selinger 2001-2017
</metadata>
<g transform="translate(0.000000,4000.000000) scale(0.100000,-0.100000)"
fill="#000000" stroke="none">
<path d="M17200 36880 c-1972 -119 -3807 -691 -5855 -1828 -2330 -1293 -4134
-2970 -5148 -4787 -537 -962 -849 -1938 -954 -2985 -22 -218 -25 -882 -5
-1085 47 -489 120 -871 246 -1292 211 -703 585 -1375 1099 -1973 355 -412
1153 -1118 2282 -2018 259 -206 493 -398 520 -426 50 -52 107 -96 123 -96 15
0 92 -83 85 -93 -3 -5 -2 -7 3 -4 5 3 27 -10 49 -29 22 -19 60 -45 85 -57 25
-12 47 -25 48 -29 2 -5 8 -8 14 -8 5 0 27 -18 48 -40 21 -22 41 -40 45 -40 4
0 51 -44 104 -97 54 -54 111 -104 127 -112 67 -34 165 -107 190 -143 15 -21
31 -38 35 -38 5 0 9 -6 9 -13 0 -11 79 -65 145 -97 17 -8 34 -21 38 -27 4 -7
13 -13 20 -13 7 0 51 -37 98 -82 97 -93 111 -105 159 -132 19 -11 45 -32 57
-47 13 -15 45 -40 71 -55 47 -27 92 -68 92 -83 0 -13 34 -38 61 -44 28 -7 339
-316 475 -472 246 -282 424 -570 489 -790 49 -167 45 -382 -9 -543 -51 -149
-183 -370 -328 -550 -83 -104 -399 -419 -523 -521 -261 -217 -593 -448 -960
-668 -270 -162 -393 -223 -732 -357 -811 -322 -1298 -496 -1673 -600 -91 -25
-197 -57 -237 -70 -39 -14 -89 -28 -110 -32 -46 -8 -93 -31 -93 -45 0 -6 -4
-7 -10 -4 -6 3 -10 2 -10 -2 0 -8 -59 -34 -75 -34 -2 0 -32 -15 -66 -34 -33
-19 -65 -35 -70 -35 -5 0 -9 -4 -9 -9 0 -5 -11 -12 -25 -15 -14 -4 -25 -11
-25 -16 0 -6 -7 -10 -15 -10 -8 0 -15 -4 -15 -8 0 -4 -15 -13 -34 -20 -18 -7
-41 -21 -51 -32 -10 -11 -23 -20 -29 -20 -7 0 -18 -9 -26 -20 -8 -11 -19 -20
-24 -20 -13 0 -35 -32 -36 -52 0 -10 -5 -18 -12 -18 -6 0 -9 -3 -5 -6 3 -3 1
-18 -5 -33 -8 -22 -14 -45 -22 -86 -1 -5 -5 -16 -9 -22 -5 -7 -6 -13 -3 -13 3
0 1 -12 -5 -27 -10 -25 -20 -82 -35 -198 -10 -76 -14 -100 -23 -145 -6 -25
-13 -67 -16 -95 -4 -27 -9 -61 -12 -75 -9 -48 -13 -293 -4 -304 5 -6 11 -33
14 -61 13 -125 21 -166 50 -245 17 -47 37 -93 45 -102 8 -9 11 -22 7 -27 -3
-6 -2 -11 3 -11 5 0 15 -13 22 -30 7 -16 15 -30 19 -30 3 0 17 -18 29 -38 18
-30 43 -48 108 -80 86 -43 124 -52 124 -29 0 9 2 9 8 0 10 -16 54 -5 45 11 -4
6 1 5 10 -2 20 -17 101 -7 91 11 -5 8 -2 7 7 0 15 -14 33 -18 25 -5 -3 5 12 7
32 5 20 -1 44 0 52 3 16 7 33 9 93 12 21 1 36 6 33 11 -4 5 2 7 12 4 50 -13
739 124 1472 293 1285 296 2153 562 3053 936 133 55 382 155 552 223 542 216
832 344 1290 570 524 259 928 490 1365 780 764 506 1299 985 1783 1597 103
130 133 158 157 143 25 -16 1 -135 -124 -605 -530 -2003 -910 -3464 -960
-3692 -48 -214 -79 -499 -57 -512 7 -5 7 -13 -1 -26 -10 -15 -10 -22 0 -32 7
-7 17 -14 22 -14 6 -1 14 -2 20 -3 5 0 10 -11 9 -23 -1 -48 23 -207 42 -283
28 -111 89 -232 150 -299 114 -124 370 -199 603 -175 146 15 288 55 373 105
61 36 164 134 221 212 52 70 162 256 162 272 0 6 4 10 10 10 5 0 9 3 9 8 -3
20 2 32 14 29 7 -1 11 7 9 22 -2 19 1 22 19 18 17 -4 19 -3 10 6 -14 14 -14
30 1 21 7 -5 9 0 6 14 -5 19 -4 20 15 10 21 -11 21 -10 7 7 -14 17 -13 18 3
12 10 -4 23 -7 29 -7 6 0 8 -7 5 -14 -4 -9 -1 -13 6 -10 17 6 40 61 31 75 -4
7 -3 9 3 6 5 -3 49 90 98 206 191 458 448 1025 720 1589 164 341 195 394 241
425 23 15 28 15 59 0 19 -9 81 -72 147 -149 342 -397 718 -730 1223 -1084 404
-283 952 -598 1425 -819 102 -48 239 -113 305 -144 135 -65 156 -74 170 -76 6
-1 24 -8 40 -15 17 -7 32 -14 35 -14 3 -1 10 -4 16 -8 53 -34 158 -84 269
-128 11 -4 37 -15 58 -25 21 -9 62 -25 92 -35 30 -10 69 -25 87 -33 18 -8 51
-22 73 -30 35 -14 140 -57 215 -89 26 -11 44 -17 70 -22 16 -3 36 -10 90 -32
19 -8 47 -16 63 -18 15 -1 30 -6 34 -9 3 -4 17 -7 29 -7 13 0 26 -5 29 -10 4
-6 11 -8 16 -5 5 4 9 2 9 -3 0 -8 35 -23 49 -21 2 0 7 -4 11 -11 4 -6 18 -12
31 -14 13 -2 31 -6 39 -9 58 -21 107 -36 120 -35 13 0 44 -7 125 -28 26 -7 52
-11 98 -18 21 -3 54 -13 75 -22 20 -8 55 -18 77 -20 22 -3 56 -10 75 -16 19
-5 62 -12 95 -15 33 -2 84 -11 114 -20 30 -8 78 -17 107 -18 29 -2 63 -9 76
-16 13 -7 24 -11 26 -10 1 1 19 -3 40 -9 20 -5 48 -10 62 -10 14 0 54 -8 90
-19 81 -24 226 -51 302 -57 32 -2 69 -9 83 -14 14 -5 25 -7 25 -4 0 2 9 0 19
-6 11 -5 50 -12 87 -16 37 -3 75 -9 84 -14 9 -5 39 -11 67 -13 28 -2 55 -7 59
-10 5 -3 27 -8 49 -11 22 -3 119 -17 215 -31 96 -14 240 -30 320 -36 398 -28
716 66 841 248 40 57 84 163 94 224 4 24 10 48 13 54 11 17 14 59 15 170 0
218 5 200 -66 269 -50 48 -77 66 -130 84 -37 13 -70 28 -73 33 -7 11 -314 160
-340 165 -5 1 -30 11 -54 23 -24 11 -48 21 -52 21 -5 0 -52 21 -106 46 -53 25
-115 53 -137 62 -22 8 -44 19 -49 24 -6 4 -17 8 -25 8 -14 0 -155 60 -191 81
-8 5 -35 18 -60 29 -25 11 -53 25 -63 31 -10 5 -37 19 -60 30 -23 12 -53 27
-67 34 -14 7 -42 18 -62 24 -21 7 -38 17 -38 23 0 6 -3 8 -7 5 -3 -4 -12 -2
-20 4 -7 6 -13 9 -13 5 0 -4 -14 1 -31 10 -36 18 -126 51 -179 64 -19 5 -73
29 -120 53 -203 105 -358 181 -370 182 -3 0 -21 10 -40 22 -41 25 -140 65
-140 57 0 -4 -6 -2 -12 3 -13 10 -109 42 -139 46 -9 2 -32 14 -50 28 -19 15
-45 30 -59 34 -14 4 -27 10 -30 14 -8 10 -39 27 -140 77 -52 26 -112 58 -132
71 -21 12 -44 23 -53 23 -8 0 -15 4 -15 9 0 5 -25 17 -55 26 -30 10 -55 21
-55 25 0 4 -19 13 -42 19 -24 7 -47 17 -53 21 -5 4 -35 15 -65 25 -125 39
-689 331 -1000 518 -714 427 -1273 908 -1436 1234 -33 66 -36 77 -32 141 6
107 55 164 183 211 119 44 295 72 1075 171 540 69 827 112 1151 176 864 169
1464 400 1849 711 187 152 395 406 536 659 19 33 43 69 53 78 45 41 61 -4 106
-299 20 -132 45 -285 55 -340 26 -137 42 -270 35 -298 -5 -19 21 -143 42 -197
3 -8 7 -26 9 -40 6 -49 49 -209 70 -260 7 -19 18 -53 23 -75 24 -108 54 -201
80 -248 16 -29 32 -68 36 -87 4 -19 12 -46 18 -60 5 -14 12 -34 14 -45 2 -11
12 -38 22 -60 10 -22 24 -70 31 -108 8 -37 16 -67 19 -67 3 0 7 -12 8 -26 0
-15 6 -36 11 -48 5 -11 20 -50 32 -86 11 -36 25 -74 30 -85 30 -72 110 -284
110 -293 0 -7 5 -12 11 -12 6 0 9 -7 6 -15 -4 -8 -2 -17 3 -20 6 -4 10 -12 10
-20 0 -8 5 -26 12 -42 6 -15 13 -39 15 -52 2 -14 8 -32 13 -42 6 -10 24 -59
41 -111 32 -94 109 -265 208 -458 10 -19 33 -64 50 -100 40 -79 86 -161 100
-177 6 -7 11 -17 11 -23 0 -5 5 -10 10 -10 6 0 10 -6 10 -13 0 -8 10 -22 21
-33 12 -10 44 -66 72 -124 27 -58 60 -115 71 -128 12 -13 20 -27 20 -30 -2
-11 8 -35 26 -62 27 -41 97 -173 105 -200 4 -14 22 -41 40 -60 18 -19 94 -142
169 -273 284 -495 374 -627 545 -798 58 -58 151 -140 207 -181 55 -42 108 -88
117 -102 21 -32 22 -88 1 -127 -12 -24 -13 -34 -3 -45 8 -10 15 -11 24 -4 20
17 31 -27 12 -48 -8 -9 -13 -22 -10 -28 2 -7 -11 -28 -30 -48 -19 -20 -32 -36
-30 -36 7 0 -283 -357 -473 -580 -565 -667 -1057 -1194 -1863 -2001 -649 -648
-1056 -1037 -1631 -1558 -129 -117 -240 -222 -246 -232 -6 -11 -14 -20 -18
-20 -15 2 -16 0 -6 -19 15 -29 6 -40 -176 -202 -675 -600 -1475 -1252 -1884
-1537 -58 -41 -106 -78 -108 -82 -2 -5 -9 -9 -15 -9 -7 0 -28 -14 -47 -31 -19
-17 -29 -28 -23 -24 28 14 52 14 47 0 -3 -8 -12 -11 -20 -8 -8 3 -14 1 -12 -4
2 -5 -22 -31 -52 -58 -191 -169 -283 -305 -329 -486 -57 -225 -24 -481 85
-661 41 -67 164 -195 173 -180 6 10 51 -2 51 -13 0 -4 -5 -3 -12 1 -7 5 -8 3
-4 -5 5 -7 10 -10 13 -7 3 3 25 -8 49 -24 254 -176 626 -231 1015 -151 64 13
91 15 99 7 8 -8 11 -7 8 2 -2 8 8 18 21 23 18 7 22 6 18 -5 -4 -10 0 -14 14
-13 13 1 17 7 14 18 -4 12 2 18 19 21 14 3 23 2 21 -2 -2 -4 2 -7 10 -7 8 0
12 4 10 8 -7 10 26 22 54 20 17 -2 21 1 16 11 -3 7 0 5 8 -5 12 -14 16 -15 26
-4 6 8 9 16 6 19 -3 2 7 3 23 1 35 -5 320 136 494 245 303 190 654 463 1012
786 64 59 122 103 128 100 7 -4 8 -2 4 4 -3 6 3 16 14 22 11 6 20 7 20 3 0 -4
5 -1 10 7 8 13 10 12 10 -2 0 -17 1 -17 18 0 13 12 16 22 10 35 -10 19 2 23
19 6 13 -13 13 7 0 28 -6 9 -3 11 7 7 9 -3 16 -11 16 -16 0 -16 83 63 425 407
390 391 731 756 1189 1273 74 83 114 121 124 117 12 -4 13 -3 2 10 -11 14 -7
19 13 16 4 0 7 7 7 16 0 15 2 16 10 3 7 -11 10 -11 10 -2 0 8 5 10 13 6 8 -5
7 -2 -2 9 -13 16 -12 17 13 7 18 -6 25 -6 21 0 -3 6 -1 10 4 10 28 0 6 -22
232 240 863 1007 1849 2241 3094 3875 213 281 394 515 401 521 8 6 14 17 14
23 0 7 5 9 10 6 8 -5 8 -11 0 -20 -15 -18 7 -32 23 -15 9 10 9 11 -2 5 -9 -5
-12 -4 -7 3 4 7 14 12 22 12 8 0 14 5 14 11 0 5 5 7 10 4 6 -4 10 -3 9 2 -3
20 2 25 15 14 11 -9 16 -9 22 0 5 8 3 9 -6 4 -9 -6 -11 -4 -6 4 5 7 14 10 21
7 15 -5 49 27 38 37 -3 4 -1 7 5 7 12 0 594 773 1477 1960 280 377 799 1071
1152 1543 354 472 664 893 688 935 82 139 116 263 137 494 20 223 -12 469 -77
604 -89 182 -263 259 -617 271 -364 12 -590 -42 -827 -201 -313 -210 -854
-751 -1584 -1583 -127 -144 -235 -264 -242 -267 -22 -8 -37 11 -52 65 -21 75
-29 665 -14 995 40 854 146 1577 410 2779 135 618 188 877 231 1130 66 388 75
490 74 850 0 281 -3 337 -22 463 -70 450 -232 797 -496 1071 -271 280 -607
438 -1066 503 -62 8 -191 13 -370 12 -378 -1 -488 -18 -940 -148 -91 -27 -178
-54 -195 -61 -44 -20 -67 -28 -95 -32 -14 -2 -44 -10 -66 -18 -23 -8 -60 -16
-83 -19 -27 -3 -60 -18 -90 -41 -27 -19 -52 -35 -55 -35 -4 0 -18 -10 -31 -23
-14 -12 -42 -31 -62 -42 -64 -33 -137 -81 -168 -110 -17 -15 -46 -35 -65 -45
-19 -10 -57 -39 -85 -65 -27 -26 -76 -65 -107 -87 -32 -23 -58 -45 -58 -51 0
-6 -3 -8 -6 -4 -6 5 -14 0 -91 -65 -24 -21 -47 -38 -51 -38 -4 0 -27 -18 -52
-39 -24 -22 -47 -38 -51 -35 -4 2 -12 -3 -19 -11 -7 -8 -19 -15 -26 -15 -8 0
-14 -4 -14 -8 0 -4 -12 -15 -27 -24 -16 -9 -66 -53 -113 -97 -46 -45 -87 -81
-90 -81 -10 -1 -76 -65 -102 -100 -15 -19 -51 -60 -80 -90 -29 -31 -71 -79
-93 -107 -22 -28 -49 -57 -60 -63 -11 -6 -30 -33 -43 -59 -28 -60 -109 -171
-123 -171 -17 0 -112 -99 -144 -149 -52 -84 -97 -112 -166 -103 -44 5 -129
101 -129 146 0 22 -157 176 -180 176 -5 0 -10 5 -10 11 0 6 -7 9 -15 5 -8 -3
-15 0 -15 6 0 6 -3 9 -6 6 -3 -4 -22 1 -42 9 -20 8 -37 14 -37 13 0 -8 -86 16
-113 31 -46 26 -91 30 -163 13 -56 -13 -230 -19 -344 -11 -22 2 -78 -8 -125
-20 -48 -14 -126 -26 -179 -28 -51 -3 -99 -9 -106 -15 -6 -5 -15 -7 -18 -4 -3
3 -11 3 -18 -1 -6 -4 -31 -9 -55 -11 -23 -1 -52 -8 -63 -14 -16 -8 -21 -8 -21
1 0 8 -4 8 -12 2 -12 -9 -59 -9 -121 1 -12 1 -38 -4 -57 -12 -32 -13 -175 -52
-210 -56 -8 -1 -24 -7 -36 -14 -26 -14 -63 -21 -133 -28 -56 -5 -121 -29 -121
-46 0 -5 -4 -6 -10 -3 -5 3 -19 1 -30 -5 -11 -6 -39 -12 -63 -14 -51 -4 -214
-50 -271 -76 -22 -11 -52 -22 -66 -24 -14 -3 -25 -5 -25 -6 0 -1 -13 -3 -28
-5 -16 -1 -33 -8 -38 -16 -5 -8 -9 -10 -9 -4 0 5 -5 4 -12 -3 -7 -7 -20 -12
-30 -12 -10 0 -18 -4 -18 -9 0 -6 -8 -10 -17 -9 -55 1 -242 -55 -306 -92 -18
-10 -165 -80 -327 -156 -252 -118 -302 -138 -345 -138 l-50 -1 1 37 c2 50 115
257 174 316 59 59 132 162 172 240 17 35 42 70 54 79 13 8 26 23 29 34 4 10
12 25 20 33 8 7 39 65 71 127 31 63 67 128 80 146 13 17 24 36 24 41 0 5 18
37 40 71 22 34 38 66 35 72 -4 5 -2 9 2 9 5 0 17 17 27 38 10 20 23 46 29 57
11 21 34 68 61 125 9 19 26 46 39 60 12 14 33 41 47 60 13 19 38 52 56 72 30
34 68 103 76 138 3 14 7 20 35 53 6 8 23 36 37 63 15 27 45 78 68 114 30 48
41 74 40 100 -2 36 53 156 93 202 11 13 34 50 50 82 56 112 67 130 82 141 7 6
19 20 26 32 40 72 92 159 99 168 19 21 79 122 99 165 11 25 29 54 39 65 20 22
243 402 490 835 552 968 718 1322 840 1795 47 183 73 316 96 500 24 191 24
597 0 779 -57 432 -189 753 -403 976 -98 103 -183 167 -303 229 -254 130 -518
178 -919 168 -312 -8 -512 -46 -837 -158 -972 -336 -1844 -989 -2502 -1874
-421 -567 -729 -1161 -1024 -1975 -142 -392 -459 -1346 -497 -1495 -6 -22 -31
-101 -56 -175 -26 -74 -47 -147 -48 -162 -1 -16 -5 -28 -9 -28 -5 0 -8 -7 -8
-16 0 -18 -28 -82 -45 -104 -7 -8 -18 -46 -25 -85 -7 -38 -21 -90 -31 -115
-10 -25 -23 -65 -29 -90 -6 -25 -19 -63 -29 -85 -11 -22 -19 -44 -19 -49 0 -5
-4 -12 -9 -15 -4 -3 -16 -28 -26 -56 -17 -47 -21 -59 -31 -117 -2 -13 -11 -50
-19 -83 -9 -33 -18 -76 -21 -96 -6 -41 -12 -62 -31 -104 -14 -30 -26 -66 -26
-75 -1 -3 -5 -10 -10 -17 -6 -6 -12 -24 -15 -40 -3 -15 -7 -32 -8 -38 -15 -65
-20 -82 -28 -92 -6 -7 -8 -13 -4 -13 7 0 -27 -95 -65 -177 -26 -58 -46 -118
-55 -169 -2 -12 -13 -51 -24 -87 -11 -36 -22 -78 -24 -93 -2 -16 -13 -56 -25
-88 -11 -33 -19 -62 -16 -64 3 -3 0 -11 -5 -18 -6 -6 -10 -16 -8 -20 4 -15
-13 -89 -24 -101 -6 -7 -7 -13 -3 -13 4 0 2 -7 -5 -15 -6 -8 -9 -19 -5 -25 3
-5 2 -10 -3 -10 -14 0 -33 -73 -22 -84 6 -6 10 -21 10 -35 0 -23 -274 -1012
-322 -1161 -29 -91 -47 -110 -67 -71 -6 10 -24 97 -41 192 -56 321 -115 527
-224 786 -31 73 -56 143 -56 156 0 13 -8 33 -18 45 -10 12 -31 52 -47 89 -15
37 -34 75 -40 83 -15 18 -79 141 -81 155 -11 71 -51 156 -96 205 -13 14 -28
35 -33 47 -6 11 -35 48 -65 81 -133 143 -146 163 -247 361 -16 30 -58 84 -94
120 -36 36 -71 77 -78 89 -14 26 -35 52 -93 114 -21 22 -38 45 -38 51 0 6 -25
35 -55 64 -30 30 -55 57 -55 61 0 8 -89 92 -143 133 -23 18 -60 54 -82 82 -22
27 -56 57 -75 67 -35 18 -110 82 -110 94 0 3 -42 59 -94 125 -268 341 -469
679 -526 882 -48 173 -46 373 6 528 50 148 210 428 352 615 358 473 916 978
1643 1488 772 542 1617 1045 3644 2171 758 420 1079 604 1490 850 731 438
1365 860 1646 1095 476 399 713 937 736 1672 30 972 -364 1876 -1192 2728
-762 786 -1859 1429 -3073 1803 -684 210 -1369 339 -2157 405 -221 18 -1131
28 -1365 14z m-1095 -24620 c3 -5 2 -10 -4 -10 -5 0 -13 5 -16 10 -3 6 -2 10
4 10 5 0 13 -4 16 -10z m25 -76 c0 -21 -17 -17 -23 5 -3 14 -1 18 9 14 8 -3
14 -11 14 -19z m1685 -34 c10 -11 14 -20 8 -20 -5 0 -20 9 -33 20 -16 14 -19
20 -8 20 8 0 23 -9 33 -20z m10956 -588 c-7 -2 -18 1 -23 6 -8 8 -4 9 13 5 13
-4 18 -8 10 -11z m-21 -52 c-12 -16 -26 -33 -33 -37 -6 -4 -2 6 10 21 18 22
20 32 12 48 -10 18 -9 18 11 8 l21 -11 -21 -29z m2210 -112 c-8 -7 -12 -9 -8
-4 4 5 2 18 -4 30 -10 20 -10 20 8 4 16 -15 16 -20 4 -30z m41 -11 c-10 -9
-11 -8 -5 6 3 10 9 15 12 12 3 -3 0 -11 -7 -18z m-71 -17 c0 -5 -7 -7 -15 -4
-8 4 -12 10 -9 15 6 11 24 2 24 -11z m-20 -21 c0 -14 -17 -10 -23 5 -4 10 -1
13 9 9 7 -3 14 -9 14 -14z m-8660 -6233 c0 -3 -4 -8 -10 -11 -5 -3 -10 -1 -10
4 0 6 5 11 10 11 6 0 10 -2 10 -4z m-206 -1407 c-8 -13 -24 -1 -24 18 0 13 3
13 15 3 8 -7 12 -16 9 -21z"/>
<path d="M17445 21500 c3 -5 8 -10 11 -10 2 0 4 5 4 10 0 6 -5 10 -11 10 -5 0
-7 -4 -4 -10z"/>
<path d="M18088 21348 c-15 -23 -31 -68 -42 -118 -5 -24 -5 -24 10 -5 8 11 17
31 20 45 3 14 12 42 20 63 16 42 13 47 -8 15z"/>
<path d="M17680 20933 c0 -5 5 -15 10 -23 8 -12 10 -11 10 8 0 12 -4 22 -10
22 -5 0 -10 -3 -10 -7z"/>
<path d="M17938 20717 c-3 -19 -2 -25 4 -19 6 6 8 18 6 28 -3 14 -5 12 -10 -9z"/>
<path d="M8956 19713 c-6 -14 -5 -15 5 -6 7 7 10 15 7 18 -3 3 -9 -2 -12 -12z"/>
<path d="M8749 19683 c-13 -16 -12 -17 4 -4 9 7 17 15 17 17 0 8 -8 3 -21 -13z"/>
<path d="M8630 19686 c0 -2 7 -7 16 -10 8 -3 12 -2 9 4 -6 10 -25 14 -25 6z"/>
<path d="M8819 19648 c-5 -18 -6 -38 -1 -34 7 8 12 36 6 36 -2 0 -4 -1 -5 -2z"/>
<path d="M8779 19608 c-5 -18 -6 -38 -1 -34 7 8 12 36 6 36 -2 0 -4 -1 -5 -2z"/>
<path d="M8713 19565 c0 -8 4 -15 9 -15 4 0 8 4 8 9 0 6 -4 12 -8 15 -5 3 -9
-1 -9 -9z"/>
<path d="M8865 19560 c-3 -6 1 -7 9 -4 18 7 21 14 7 14 -6 0 -13 -4 -16 -10z"/>
<path d="M8630 19540 c0 -5 5 -10 11 -10 5 0 7 5 4 10 -3 6 -8 10 -11 10 -2 0
-4 -4 -4 -10z"/>
<path d="M8493 19505 c0 -8 4 -12 9 -9 5 3 6 10 3 15 -9 13 -12 11 -12 -6z"/>
<path d="M8669 19483 c-13 -16 -12 -17 4 -4 9 7 17 15 17 17 0 8 -8 3 -21 -13z"/>
<path d="M8710 19496 c0 -2 8 -10 18 -17 15 -13 16 -12 3 4 -13 16 -21 21 -21
13z"/>
<path d="M8755 19489 c-4 -6 -5 -12 -2 -15 2 -3 7 2 10 11 7 17 1 20 -8 4z"/>
<path d="M8454 19476 c1 -8 5 -18 8 -22 4 -3 5 1 4 10 -1 8 -5 18 -8 22 -4 3
-5 -1 -4 -10z"/>
<path d="M8596 19473 c-6 -14 -5 -15 5 -6 7 7 10 15 7 18 -3 3 -9 -2 -12 -12z"/>
<path d="M8630 19479 c0 -5 5 -7 10 -4 6 3 10 8 10 11 0 2 -4 4 -10 4 -5 0
-10 -5 -10 -11z"/>
<path d="M8515 19441 c-3 -5 -2 -12 3 -15 5 -3 9 1 9 9 0 17 -3 19 -12 6z"/>
<path d="M8575 19409 c-4 -6 -5 -12 -2 -15 2 -3 7 2 10 11 7 17 1 20 -8 4z"/>
<path d="M6007 13293 c-5 -9 -50 -143 -53 -158 -1 -5 -5 -22 -9 -36 -6 -24 -4
-27 27 -31 l34 -4 2 50 c1 27 -4 57 -11 65 -10 12 -9 13 1 7 10 -6 13 -1 12
20 -1 16 -1 31 0 34 3 8 6 60 3 60 -1 0 -4 -3 -6 -7z"/>
<path d="M6429 12683 c-13 -16 -12 -17 4 -4 9 7 17 15 17 17 0 8 -8 3 -21 -13z"/>
<path d="M8836 878 c3 -5 10 -6 15 -3 13 9 11 12 -6 12 -8 0 -12 -4 -9 -9z"/>
<path d="M8717 653 c-10 -9 -9 -23 1 -23 5 0 9 7 9 15 0 17 -1 18 -10 8z"/>
</g>
</svg>
